P1
# CREATOR: GIMP PNM Filter Version 1.1
8 16
0000000000011000001110000111100000011000000110000001100000011000000110
0000011000000110000001100000011000011111100000000000000000
