P1
# Created by GIMP version 2.10.30 PNM plug-in
8 16
0000000000000000000000000000000000000000000110000010010001000010010000
1001000010011111100100001001000010010000100000000000000000