P1
# Created by GIMP version 2.10.30 PNM plug-in
8 16
0000000000111100010000100100001001000100001010000001000000101000010001
0001000000010011100100010001001000001100000000000000000000