P1
# Created by GIMP version 2.10.30 PNM plug-in
8 16
0000000000000000000000000011100001000100100100101010101010101010101010
1010010100010000000011110000000000000000000000000000000000