P1
# Created by GIMP version 2.10.30 PNM plug-in
8 16
0000000000000000000000000000000000000000010000000100000001000000011110
0001000100010000100100001001000100011110000000000000000000