P1
# Created by GIMP version 2.10.30 PNM plug-in
8 16
0000000001111100010001000100001001000010010000100100010001111000010001
0001000010010000100100001001000100011111000000000000000000