P1
# Created by GIMP version 2.10.30 PNM plug-in
8 16
0000000000000000010000000100000000100000001000000001000000001000000010
0000000100000001000000001000000010000000000000000000000000