P1
# Created by GIMP version 2.10.30 PNM plug-in
8 16
0000000000000000000110000001100000011000000110000001100000011000000110
0000011000000110000000000000011000000110000000000000000000