P1
# Created by GIMP version 2.10.30 PNM plug-in
8 16
0000000000000000000100000010100001000100000000000000000000000000000000
0000000000000000000000000000000000000000000000000000000000