P1
# Created by GIMP version 2.10.30 PNM plug-in
8 16
0000000000000000000000000000000000000000000000100000001000000010000111
1000100010010000100100001000100010000111100000000000000000