P1
# Created by GIMP version 2.10.30 PNM plug-in
8 16
0000000000010000001110000100010001000100001000000010000000010000000010
0000001000010001000100010000111000000100000000000000000000