P1
# Created by GIMP version 2.10.30 PNM plug-in
8 16
0000000000100100001001000010010000100100000000000000000000000000000000
0000000000000000000000000000000000000000000000000000000000