P1
# Created by GIMP version 2.10.30 PNM plug-in
8 16
0000000000000000000000000000000000000000000110000010010001000010010000
1001111110010000000100000001000010001001000001100000000000