P1
# Created by GIMP version 2.10.30 PNM plug-in
8 16
0000000000000000000000000000000000000000011111100000000000000000000000
0001111110000000000000000000000000000000000000000000000000