P1
# Created by GIMP version 2.10.30 PNM plug-in
8 16
0000000000000000000000000000000000000000000111000010001000100010001000
0001110000001000000010000000100000001000000000000000000000