P1
# Created by GIMP version 2.10.30 PNM plug-in
8 16
0000000001111110010000000100000001000000010000000100000001111100010000
0001000000010000000100000001000000010000000000000000000000