P1
# Created by GIMP version 2.10.30 PNM plug-in
8 16
0000000000011000001001000100001001000010010000000100000001000000010000
0001011110010000100100001000100100000110000000000000000000