P1
# Created by GIMP version 2.10.30 PNM plug-in
8 16
0000000000000000000000000010010000100100011111100010010000100100001001
0000100100011111100010010000100100000000000000000000000000