P1
# Created by GIMP version 2.10.30 PNM plug-in
8 16
0000000000000000000000000000000000000000000100000001000000000000001110
0000010000000100000001000000010000001110000000000000000000