P1
# Created by GIMP version 2.10.30 PNM plug-in
8 16
0000000000000000000000000000000000000000000000100000001000000000000000
1000000010000000100100001001000010001111000000000000000000