P1
# Created by GIMP version 2.10.30 PNM plug-in
8 16
0000000000000000000000000000000000000000010000000100000001000100010010
0001010000011000000101000001001000010001000000000000000000