P1
# Created by GIMP version 2.10.30 PNM plug-in
8 16
0000000001000010010000100100001001000100010010000101000001100000010100
0001001000010001000100001001000010010000100000000000000000