P1
# Created by GIMP version 2.10.30 PNM plug-in
8 16
0000000000000000000000000000000000000000001100000010000000100000001000
0000100000001000000010000000100000011110000000000000000000