P1
# Created by GIMP version 2.10.30 PNM plug-in
8 16
0000000000001000000100000010000000100000010000000100000001000000010000
0001000000001000000010000000010000000010000000000000000000