P1
# Created by GIMP version 2.10.30 PNM plug-in
8 16
0000000000000000000000000000001000000100000010000001000000100000010000
0000100000000100000000100000000100000000100000000000000000