P1
# Created by GIMP version 2.10.30 PNM plug-in
8 16
0000000000000100000010000000100000001000000010000001000001100000000100
0000001000000010000000100000001000000001000000000000000000