P1
# Created by GIMP version 2.10.30 PNM plug-in
8 16
0000000001000010010000100100001001100010010100100101001001010010010010
1001001010010001100100001001000010010000100000000000000000