P1
# Created by GIMP version 2.10.30 PNM plug-in
8 16
0000000000000000000000000000000000000000011110000100010001000010010000
1001000100011110000100000001000000010000000000000000000000