P1
# Created by GIMP version 2.10.30 PNM plug-in
8 16
0000000000000000001000100101001000100100000010000000100000010000000100
0000100100010010100100010000000000000000000000000000000000