P1
# Created by GIMP version 2.10.30 PNM plug-in
8 16
0000000000000000000000000000000000000000000100000001000001111100000100
0000010000000000000000000000000000000000000000000000000000