P1
# Created by GIMP version 2.10.30 PNM plug-in
8 16
0000000000000000000000000000000000000000000111100010001001000010010000
1000100010000111100000001000000010000000100000000000000000