P1
# Created by GIMP version 2.10.30 PNM plug-in
8 16
0000000000011000001001000100001001000010010000100100001001000010010000
1001000010010000100100101000100100000110100000000000000000