P1
# Created by GIMP version 2.10.30 PNM plug-in
8 16
0000000000111100011001100100001001000010000000100000011000001100000110
0000011000000000000001100000011000000000000000000000000000