P1
# Created by GIMP version 2.10.30 PNM plug-in
8 16
0000000000011100000001000000010000000100000001000000010000000100000001
0000000100000001000000010000000100000111000000000000000000