P1
# Created by GIMP version 2.10.30 PNM plug-in
8 16
0000000000100000000100000001000000010000000100000000100000000110000010
0000010000000100000001000000010000001000000000000000000000