P1
# Created by GIMP version 2.10.30 PNM plug-in
8 16
0000000000011000001001000100001001000010010000000010000000010000000010
0000000100010000100100001000100100000110000000000000000000