P1
# Created by GIMP version 2.10.30 PNM plug-in
8 16
0000000000000000000000000000000000000000000110000010010001000010001000
0000011000000001000100001000100100000110000000000000000000