P1
# Created by GIMP version 2.10.30 PNM plug-in
8 16
0000000000000000000000000000000000010000010101000010100001010100001010
0001010100000100000000000000000000000000000000000000000000