P1
# Created by GIMP version 2.10.30 PNM plug-in
8 16
0000000000000000000000000000000000000000001000000010000001110000001000
0000100000001000000010000000100010000111000000000000000000