P1
# Created by GIMP version 2.10.30 PNM plug-in
8 16
0000000000000000000000000000000000000000000000000000000000010000001010
1001000100000000000000000000000000000000000000000000000000