P1
# Created by GIMP version 2.10.30 PNM plug-in
8 16
0000000000000000010000100100001001000010010001000100010001001000010010
0001010000010100000110000001000000010000000000000000000000