P1
# Created by GIMP version 2.10.30 PNM plug-in
8 16
0000000000000000000000000000000000000000010000100100001001000010010000
1001000010010000100101101001100110010000100000000000000000