P1
# Created by GIMP version 2.10.30 PNM plug-in
8 16
0000000000000000000000000000000000000000010000100100001000100100001001
0000011000001001000010010001000010010000100000000000000000