P1
# Created by GIMP version 2.10.30 PNM plug-in
8 16
0000000000000000000000000000000000000000010000100100001001000010001001
1000011010000000100100001000100100000110000000000000000000