P1
# Created by GIMP version 2.10.30 PNM plug-in
8 16
0000000001000010010000100100001001000010010000100010011000011010000000
1000000010000000100000001001000010001001000001100000000000