P1
# Created by GIMP version 2.10.30 PNM plug-in
8 16
0000000000000000000000000000000000000000011111100100001000000100000010
0000001000000100000010000001000010011111100000000000000000