P1
# Created by GIMP version 2.10.30 PNM plug-in
8 16
0000000001111110010000100100001000000010000001000000010000001000000100
0000100000001000000100001001000010011111100000000000000000